<?xml version="1.0" encoding="UTF-8" standalone="no"?>
<svg width="349px" height="103px" viewBox="0 0 349 103" version="1.1" xmlns="http://www.w3.org/2000/svg" xmlns:xlink="http://www.w3.org/1999/xlink" xmlns:sketch="http://www.bohemiancoding.com/sketch/ns">
    <title>logotype</title>
    <description>Created with Sketch (http://www.bohemiancoding.com/sketch)</description>
    <defs></defs>
    <g id="Page-1" stroke="none" stroke-width="1" fill="none" fill-rule="evenodd" sketch:type="MSPage">
        <path d="M7.872,7.6 L7.872,42.608 C7.872,42.736 7.808,42.864 7.616,42.864 L3.264,43.056 C3.2,44.016 3.136,45.04 3.136,46.064 C5.44,46.064 8,46 10.688,46 C19.328,46 27.072,46.064 30.144,46.064 C30.976,42.672 32,38.448 32.64,35.312 C31.616,35.056 30.464,34.736 29.248,34.544 L26.944,41.264 C26.688,42.032 26.368,42.416 25.792,42.608 C24.768,42.8 22.72,42.992 15.616,42.992 C12.928,42.992 12.864,42.8 12.864,41.648 L13.056,7.856 C13.056,7.664 13.056,7.6 13.184,7.6 L18.752,7.472 C18.816,6.512 18.88,5.424 18.88,4.464 L10.752,4.464 L3.264,4.464 C3.2,5.424 3.136,6.448 3.2,7.408 L7.872,7.6 Z M42.304,5.552 C40,5.552 38.72,7.152 38.72,8.944 C38.72,10.8 40.192,12.336 42.176,12.336 C44.16,12.336 45.568,10.864 45.568,8.88 C45.568,7.472 44.736,5.552 42.368,5.552 L42.304,5.552 Z M40.192,22.896 L40.192,42.736 C40.192,42.864 40.128,42.992 39.936,42.992 L35.648,43.184 L35.648,46 C37.76,46 40.128,45.936 42.304,45.936 L49.408,45.936 C49.472,45.04 49.472,44.144 49.472,43.184 L44.992,42.992 C44.992,36.208 45.12,25.712 45.12,18.672 C45.12,18.544 45.12,18.48 44.992,18.48 C44.48,18.48 38.016,19.696 35.264,20.08 L35.264,22.768 L40.192,22.896 Z M63.744,46.576 C66.048,46.576 69.696,46.064 72.704,44.976 C72.576,44.016 72.448,42.992 72.256,42.16 C70.016,42.736 67.584,43.12 66.112,43.12 C63.872,43.12 61.952,41.904 61.952,39.216 C61.952,36.08 61.952,32.368 62.016,29.744 L62.016,22.576 L72,22.576 C72.064,21.552 72.192,20.4 72.192,19.248 C68.928,19.312 65.408,19.312 62.144,19.312 C62.144,16.624 62.208,13.168 62.272,10.992 C62.272,10.864 62.208,10.8 62.08,10.8 C61.888,10.8 59.2,11.888 57.536,12.976 C57.472,14.832 57.408,17.136 57.344,18.928 C57.344,19.184 57.088,19.376 56.96,19.376 C55.616,19.44 54.208,19.504 52.864,19.504 C52.8,20.464 52.736,21.616 52.736,22.64 L57.152,22.64 C57.152,24.24 57.088,28.08 57.088,30 C57.088,31.6 57.024,36.656 57.024,39.92 C57.024,41.904 57.088,43.376 58.752,44.912 C60.544,46.448 62.336,46.576 63.68,46.576 L63.744,46.576 Z M86.656,46.576 C88.96,46.576 92.608,46.064 95.616,44.976 C95.488,44.016 95.36,42.992 95.168,42.16 C92.928,42.736 90.496,43.12 89.024,43.12 C86.784,43.12 84.864,41.904 84.864,39.216 C84.864,36.08 84.864,32.368 84.928,29.744 L84.928,22.576 L94.912,22.576 C94.976,21.552 95.104,20.4 95.104,19.248 C91.84,19.312 88.32,19.312 85.056,19.312 C85.056,16.624 85.12,13.168 85.184,10.992 C85.184,10.864 85.12,10.8 84.992,10.8 C84.8,10.8 82.112,11.888 80.448,12.976 C80.384,14.832 80.32,17.136 80.256,18.928 C80.256,19.184 80,19.376 79.872,19.376 C78.528,19.44 77.12,19.504 75.776,19.504 C75.712,20.464 75.648,21.616 75.648,22.64 L80.064,22.64 C80.064,24.24 80,28.08 80,30 C80,31.6 79.936,36.656 79.936,39.92 C79.936,41.904 80,43.376 81.664,44.912 C83.456,46.448 85.248,46.576 86.592,46.576 L86.656,46.576 Z M102.592,5.488 C102.656,16.688 102.592,31.472 102.528,42.736 C102.528,42.864 102.464,42.992 102.336,42.992 L98.048,43.184 C97.984,44.08 97.984,45.104 97.984,46 C100.096,46 102.592,45.936 104.896,45.936 L112.32,45.936 C112.384,45.04 112.384,44.016 112.384,43.12 L107.392,42.992 C107.456,30.256 107.584,12.976 107.648,1.392 C107.648,1.2 107.584,1.136 107.456,1.136 C106.944,1.136 100.288,2.352 97.536,2.608 C97.536,3.504 97.472,4.464 97.472,5.36 L102.592,5.488 Z M115.712,33.776 C115.712,41.2 120.32,46.64 128.64,46.64 C131.392,46.64 135.296,45.68 138.816,43.952 C138.688,43.056 138.432,41.968 138.112,41.072 C135.872,41.968 132.544,43.12 129.6,43.12 C126.976,43.12 124.928,42.736 123.008,40.496 C121.536,38.768 120.832,36.144 120.896,32.624 C124.928,32.624 133.376,32.56 137.152,32.432 C137.792,32.368 139.008,30.896 139.328,30.128 C139.328,27.248 138.752,24.112 136.896,21.744 C135.232,19.696 132.672,18.48 129.344,18.48 C121.088,18.48 115.712,25.392 115.712,33.712 L115.712,33.776 Z M128.64,21.488 C130.496,21.488 131.776,22.256 132.736,23.408 C133.696,24.56 134.464,26.608 134.464,28.784 C134.464,29.296 134.144,29.488 133.632,29.488 C129.984,29.616 124.8,29.68 121.152,29.68 C121.344,26.416 123.008,24.432 123.84,23.472 C124.928,22.256 126.4,21.488 128.576,21.488 L128.64,21.488 Z M212.352,7.344 C212.416,6.384 212.416,5.296 212.416,4.336 C210.624,4.4 208.448,4.4 206.528,4.4 C203.904,4.4 200.768,4.464 198.272,4.464 C198.208,5.36 198.208,6.448 198.208,7.408 L203.776,7.536 C203.968,7.536 204.032,7.664 204.032,7.856 C203.392,11.568 201.664,18.928 200.704,23.088 C199.488,28.144 198.08,33.968 196.672,39.664 L196.288,39.664 C193.088,28.848 189.696,16.112 186.752,6.128 C185.984,6.128 183.808,6.128 183.296,6.192 C180.224,15.216 175.424,30.128 172.288,39.408 L171.904,39.408 C170.56,32.816 169.536,27.568 168.448,21.936 C167.296,16.432 166.272,10.48 165.824,7.536 L171.968,7.344 C172.032,6.384 172.032,5.36 172.032,4.4 L162.624,4.4 L156.224,4.4 C156.16,5.36 156.16,6.384 156.16,7.344 L159.872,7.536 C160.064,7.536 160.192,7.6 160.192,7.728 C161.408,13.104 162.56,18.608 163.776,23.92 C165.504,31.408 167.296,39.088 169.344,46.704 C170.624,46.704 172.224,46.704 172.928,46.64 C176.384,37.488 180.48,26.16 184.128,15.088 L184.512,15.088 C187.456,25.776 190.912,37.232 194.048,46.704 C195.584,46.704 197.056,46.704 197.76,46.64 C200,39.728 202.304,31.6 204.096,24.88 C205.632,19.184 207.168,13.744 208.832,7.536 L212.352,7.344 Z M211.904,33.776 C211.904,41.2 216.512,46.64 224.832,46.64 C227.584,46.64 231.488,45.68 235.008,43.952 C234.88,43.056 234.624,41.968 234.304,41.072 C232.064,41.968 228.736,43.12 225.792,43.12 C223.168,43.12 221.12,42.736 219.2,40.496 C217.728,38.768 217.024,36.144 217.088,32.624 C221.12,32.624 229.568,32.56 233.344,32.432 C233.984,32.368 235.2,30.896 235.52,30.128 C235.52,27.248 234.944,24.112 233.088,21.744 C231.424,19.696 228.864,18.48 225.536,18.48 C217.28,18.48 211.904,25.392 211.904,33.712 L211.904,33.776 Z M224.832,21.488 C226.688,21.488 227.968,22.256 228.928,23.408 C229.888,24.56 230.656,26.608 230.656,28.784 C230.656,29.296 230.336,29.488 229.824,29.488 C226.176,29.616 220.992,29.68 217.344,29.68 C217.536,26.416 219.2,24.432 220.032,23.472 C221.12,22.256 222.592,21.488 224.768,21.488 L224.832,21.488 Z M256.64,43.76 C257.472,45.04 258.112,46.064 258.752,46.64 C261.568,46.64 265.216,46.064 266.112,45.808 L266.112,43.12 L261.824,43.248 C261.44,43.248 261.248,42.928 261.248,42.288 C261.312,39.6 261.376,31.92 261.376,28.848 C261.376,21.744 257.536,18.48 252.8,18.48 C247.744,18.48 244.096,21.36 241.408,24.112 C242.048,24.88 242.88,25.776 243.584,26.544 C245.76,24.176 248.576,22.256 251.264,22.256 C255.232,22.256 256.832,24.944 256.576,31.792 L252.224,31.792 C243.648,31.728 239.744,36.784 239.744,40.368 C239.744,44.016 243.84,46.64 246.976,46.64 C249.28,46.64 251.584,46.192 256.32,43.76 L256.64,43.76 Z M244.928,39.792 C244.928,36.912 247.296,34.544 252.928,34.544 C254.848,34.544 256.192,34.608 256.512,34.672 L256.512,40.112 C256.512,40.432 256.512,40.56 256.32,40.688 C253.888,42.416 251.072,43.248 249.216,43.248 C246.72,43.248 244.928,41.84 244.928,39.856 L244.928,39.792 Z M296.32,21.936 C296.384,20.976 296.384,19.952 296.384,19.12 C294.912,19.12 293.184,19.184 291.456,19.184 L284.928,19.184 C284.864,20.016 284.864,21.04 284.864,22 L288.576,22.128 C288.704,22.128 288.768,22.192 288.704,22.384 C288,24.688 286.848,27.696 285.12,32.112 C283.52,36.336 282.56,38.448 281.408,41.136 L281.024,41.136 C280.064,38.384 279.232,35.696 277.76,31.152 C276.352,26.672 275.456,23.6 275.072,22.128 L279.36,21.936 C279.424,21.04 279.424,20.016 279.424,19.12 L272.192,19.12 L266.112,19.12 C266.048,20.016 266.048,20.976 266.048,21.936 L269.376,22.128 C269.504,22.128 269.568,22.192 269.632,22.32 C270.464,24.688 271.424,27.312 273.216,32.624 C275.2,38.384 276.288,41.008 278.464,46.64 C279.808,46.64 281.216,46.64 282.112,46.576 C284.544,41.776 285.952,38.704 287.808,34.416 C290.432,28.592 292.416,24.048 293.312,22.128 L296.32,21.936 Z M298.432,33.776 C298.432,41.2 303.04,46.64 311.36,46.64 C314.112,46.64 318.016,45.68 321.536,43.952 C321.408,43.056 321.152,41.968 320.832,41.072 C318.592,41.968 315.264,43.12 312.32,43.12 C309.696,43.12 307.648,42.736 305.728,40.496 C304.256,38.768 303.552,36.144 303.616,32.624 C307.648,32.624 316.096,32.56 319.872,32.432 C320.512,32.368 321.728,30.896 322.048,30.128 C322.048,27.248 321.472,24.112 319.616,21.744 C317.952,19.696 315.392,18.48 312.064,18.48 C303.808,18.48 298.432,25.392 298.432,33.712 L298.432,33.776 Z M311.36,21.488 C313.216,21.488 314.496,22.256 315.456,23.408 C316.416,24.56 317.184,26.608 317.184,28.784 C317.184,29.296 316.864,29.488 316.352,29.488 C312.704,29.616 307.52,29.68 303.872,29.68 C304.064,26.416 305.728,24.432 306.56,23.472 C307.648,22.256 309.12,21.488 311.296,21.488 L311.36,21.488 Z M330.816,22.896 L330.816,42.864 C330.816,42.928 330.688,43.056 330.56,43.056 L326.848,43.248 C326.784,44.08 326.784,45.104 326.784,46 C328.832,46 331.2,45.936 333.44,45.936 L341.568,45.936 C341.632,45.04 341.632,44.016 341.632,43.184 L335.616,43.056 C335.616,40.944 335.616,38.384 335.68,36.144 C335.68,34.096 336,31.792 336.768,30.32 C338.368,27.184 339.776,25.328 340.928,24.368 C341.888,23.6 342.464,23.408 343.104,23.408 C344.256,23.408 345.792,23.792 346.368,23.92 C347.136,23.28 348.16,20.528 348.16,19.184 C347.264,18.8 345.792,18.48 344.384,18.48 C341.696,18.48 339.392,20.144 335.744,27.312 L335.424,27.248 C335.36,23.856 335.296,20.4 335.168,18.736 C335.168,18.608 335.168,18.544 335.104,18.544 C334.72,18.544 328.768,19.76 326.208,20.208 C326.144,21.04 326.144,21.936 326.144,22.832 L330.816,22.896 Z M34.416,78.6 L26.46,78.6 L26.46,79.608 C29.304,79.932 29.448,80.328 28.944,82.488 C28.368,85.044 26.388,92.1 24.876,96.924 L24.804,96.924 C22.608,90.696 20.52,84.864 18.504,78.96 L17.46,78.96 C15.624,84.828 13.536,90.768 11.628,96.888 L11.556,96.888 C9.972,91.776 8.568,86.916 7.164,82.056 C6.624,80.22 6.696,79.932 9.324,79.608 L9.324,78.6 L0.576,78.6 L0.576,79.608 C2.772,79.896 3.312,80.184 4.212,83.136 C6.192,89.544 8.208,95.88 10.116,102.396 L11.232,102.396 C13.068,96.564 15.084,90.768 17.1,84.432 L17.172,84.432 C19.008,89.652 21.492,96.6 23.472,102.396 L24.588,102.396 C27.54,92.316 29.7,85.512 30.528,83.208 C31.608,80.22 31.932,79.932 34.416,79.608 L34.416,78.6 Z M57.4320001,96.168 C56.9640001,97.608 56.2800001,98.832 55.6680001,99.552 C54.8760001,100.488 53.8680001,100.776 51.1320001,100.776 C49.3320001,100.776 48.0720001,100.74 47.3880001,100.308 C46.7400001,99.84 46.5240001,99.084 46.5240001,97.392 L46.5240001,90.588 L49.9440001,90.588 C53.0760001,90.588 53.3280001,90.804 53.7960001,93.396 L54.8400001,93.396 L54.8400001,86.484 L53.7960001,86.484 C53.3280001,88.896 53.1480001,89.184 49.9080001,89.184 L46.5240001,89.184 L46.5240001,81.012 C46.5240001,79.932 46.5960001,79.86 47.7120001,79.86 L50.4480001,79.86 C53.0400001,79.86 54.0120001,80.112 54.5160001,80.868 C54.9840001,81.66 55.3440001,82.452 55.6680001,83.964 L56.7120001,83.784 C56.6040001,81.948 56.4240001,79.5 56.4240001,78.6 L40.3680001,78.6 L40.3680001,79.608 C43.1760001,79.86 43.4640001,79.968 43.4640001,83.208 L43.4640001,97.536 C43.4640001,100.452 43.1760001,100.74 39.9000001,100.992 L39.9000001,102 L57.2520001,102 C57.5760001,100.884 58.2960001,97.5 58.5120001,96.312 L57.4320001,96.168 Z M76.5960002,89.292 C78.6120002,88.752 81.4560002,87.348 81.4560002,83.928 C81.4560002,82.272 80.7360002,80.688 79.4400002,79.824 C78.3240002,79.032 76.7400002,78.6 74.0400002,78.6 L64.7880002,78.6 L64.7880002,79.608 C67.6680002,79.824 67.8120002,80.04 67.8120002,83.028 L67.8120002,97.536 C67.8120002,100.56 67.5960002,100.776 64.5000002,100.992 L64.5000002,102 L72.4560002,102 C75.3000002,102 77.6760002,101.568 79.5120002,100.56 C81.6360002,99.372 82.9680002,97.536 82.9680002,95.124 C82.9680002,91.524 80.1600002,89.94 76.5960002,89.4 L76.5960002,89.292 Z M70.8360002,88.968 L70.8360002,81.912 C70.8360002,80.724 70.9800002,80.328 71.3040002,80.112 C71.6640002,79.896 72.4560002,79.752 73.3560002,79.752 C76.7760002,79.752 78.1440002,81.912 78.1440002,84.36 C78.1440002,87.384 76.4880002,88.968 72.5280002,88.968 L70.8360002,88.968 Z M70.8360002,90.156 L72.4920002,90.156 C76.8840002,90.156 79.4040002,91.776 79.4040002,95.484 C79.4040002,99.228 76.7760002,100.74 73.8240002,100.776 C71.5200002,100.776 70.8360002,100.092 70.8360002,97.5 L70.8360002,90.156 Z M122.448,95.664 C120.648,99.264 118.704,101.244 115.032,101.244 C109.56,101.244 105.6,96.636 105.6,89.904 C105.6,84.432 108.804,79.356 114.816,79.356 C118.704,79.356 120.864,80.904 121.8,84.72 L122.88,84.468 C122.664,82.524 122.448,81.084 122.16,79.032 C121.152,78.852 118.704,78.06 115.788,78.06 C107.76,78.06 101.928,83.064 101.928,90.624 C101.928,96.348 105.852,102.54 114.816,102.54 C117.408,102.54 120.432,101.82 121.44,101.568 C122.088,100.38 122.988,97.716 123.492,96.06 L122.448,95.664 Z M142.116,78.06 C134.556,78.06 130.02,84.072 130.02,90.552 C130.02,97.464 135.204,102.54 141.72,102.54 C148.308,102.54 153.744,97.788 153.744,90.012 C153.744,82.812 148.236,78.06 142.152,78.06 L142.116,78.06 Z M141.396,79.356 C146.112,79.356 150.072,83.388 150.072,90.984 C150.072,97.896 146.472,101.244 142.476,101.244 C137.4,101.244 133.692,96.312 133.692,89.544 C133.692,82.812 137.364,79.356 141.36,79.356 L141.396,79.356 Z M176.724001,96.132 C176.184001,97.788 175.500001,98.94 174.888001,99.66 C174.060001,100.596 172.836001,100.776 170.856001,100.776 C169.344001,100.776 168.120001,100.704 167.400001,100.308 C166.752001,99.948 166.572001,99.228 166.572001,97.284 L166.572001,83.064 C166.572001,80.004 166.896001,79.824 169.740001,79.608 L169.740001,78.6 L160.344001,78.6 L160.344001,79.608 C163.260001,79.824 163.512001,80.004 163.512001,83.064 L163.512001,97.464 C163.512001,100.524 163.224001,100.776 160.200001,100.992 L160.200001,102 L176.508001,102 C176.832001,100.884 177.588001,97.464 177.804001,96.348 L176.724001,96.132 Z M199.992001,96.132 C199.452001,97.788 198.768001,98.94 198.156001,99.66 C197.328001,100.596 196.104001,100.776 194.124001,100.776 C192.612001,100.776 191.388001,100.704 190.668001,100.308 C190.020001,99.948 189.840001,99.228 189.840001,97.284 L189.840001,83.064 C189.840001,80.004 190.164001,79.824 193.008001,79.608 L193.008001,78.6 L183.612001,78.6 L183.612001,79.608 C186.528001,79.824 186.780001,80.004 186.780001,83.064 L186.780001,97.464 C186.780001,100.524 186.492001,100.776 183.468001,100.992 L183.468001,102 L199.776001,102 C200.100001,100.884 200.856001,97.464 201.072001,96.348 L199.992001,96.132 Z M224.016001,96.168 C223.548001,97.608 222.864001,98.832 222.252001,99.552 C221.460001,100.488 220.452001,100.776 217.716001,100.776 C215.916001,100.776 214.656001,100.74 213.972001,100.308 C213.324001,99.84 213.108001,99.084 213.108001,97.392 L213.108001,90.588 L216.528001,90.588 C219.660001,90.588 219.912001,90.804 220.380001,93.396 L221.424001,93.396 L221.424001,86.484 L220.380001,86.484 C219.912001,88.896 219.732001,89.184 216.492001,89.184 L213.108001,89.184 L213.108001,81.012 C213.108001,79.932 213.180001,79.86 214.296001,79.86 L217.032001,79.86 C219.624001,79.86 220.596001,80.112 221.100001,80.868 C221.568001,81.66 221.928001,82.452 222.252001,83.964 L223.296001,83.784 C223.188001,81.948 223.008001,79.5 223.008001,78.6 L206.952001,78.6 L206.952001,79.608 C209.760001,79.86 210.048001,79.968 210.048001,83.208 L210.048001,97.536 C210.048001,100.452 209.760001,100.74 206.484001,100.992 L206.484001,102 L223.836001,102 C224.160001,100.884 224.880001,97.5 225.096001,96.312 L224.016001,96.168 Z M251.892001,95.664 C250.092001,99.264 248.148001,101.244 244.476001,101.244 C239.004001,101.244 235.044001,96.636 235.044001,89.904 C235.044001,84.432 238.248001,79.356 244.260001,79.356 C248.148001,79.356 250.308001,80.904 251.244001,84.72 L252.324001,84.468 C252.108001,82.524 251.892001,81.084 251.604001,79.032 C250.596001,78.852 248.148001,78.06 245.232001,78.06 C237.204001,78.06 231.372001,83.064 231.372001,90.624 C231.372001,96.348 235.296001,102.54 244.260001,102.54 C246.852001,102.54 249.876001,101.82 250.884001,101.568 C251.532001,100.38 252.432001,97.716 252.936001,96.06 L251.892001,95.664 Z M278.940001,84.072 C278.760001,81.984 278.580001,79.356 278.580001,77.7 L277.824001,77.7 C277.248001,78.384 276.960001,78.6 275.988001,78.6 L261.768001,78.6 C260.760001,78.6 260.292001,78.528 259.788001,77.7 L259.068001,77.7 C258.996001,79.68 258.816001,82.02 258.636001,84.18 L259.680001,84.18 C260.112001,82.596 260.400001,81.588 260.832001,80.976 C261.300001,80.148 262.020001,79.86 265.008001,79.86 L267.240001,79.86 L267.240001,97.572 C267.240001,100.416 266.952001,100.776 263.676001,100.992 L263.676001,102 L274.008001,102 L274.008001,100.992 C270.588001,100.776 270.300001,100.416 270.300001,97.572 L270.300001,79.86 L272.856001,79.86 C275.556001,79.86 276.168001,80.112 276.744001,80.976 C277.176001,81.552 277.500001,82.452 277.896001,84.18 L278.940001,84.072 Z M294.648001,102 L294.648001,100.992 C291.696001,100.776 291.408001,100.596 291.408001,97.5 L291.408001,83.1 C291.408001,80.04 291.696001,79.824 294.648001,79.608 L294.648001,78.6 L285.108001,78.6 L285.108001,79.608 C288.060001,79.824 288.348001,80.04 288.348001,83.1 L288.348001,97.5 C288.348001,100.56 288.060001,100.776 285.108001,100.992 L285.108001,102 L294.648001,102 Z M324.648001,78.6 L316.548001,78.6 L316.548001,79.608 C319.464001,79.968 319.680001,80.256 318.996001,82.344 C317.844001,85.908 315.108001,92.928 313.308001,97.428 L313.236001,97.428 C310.824001,91.272 308.196001,84.288 307.260001,81.732 C306.684001,80.148 306.828001,79.896 309.384001,79.608 L309.384001,78.6 L300.564001,78.6 L300.564001,79.644 C302.688001,79.824 303.264001,80.112 304.308001,82.812 C306.396001,88.032 309.348001,95.808 311.760001,102.396 L312.876001,102.396 C315.576001,94.944 319.392001,85.8 320.364001,83.46 C321.732001,80.22 322.200001,79.896 324.648001,79.608 L324.648001,78.6 Z M347.700001,96.168 C347.232001,97.608 346.548001,98.832 345.936001,99.552 C345.144001,100.488 344.136001,100.776 341.400001,100.776 C339.600001,100.776 338.340001,100.74 337.656001,100.308 C337.008001,99.84 336.792001,99.084 336.792001,97.392 L336.792001,90.588 L340.212001,90.588 C343.344001,90.588 343.596001,90.804 344.064001,93.396 L345.108001,93.396 L345.108001,86.484 L344.064001,86.484 C343.596001,88.896 343.416001,89.184 340.176001,89.184 L336.792001,89.184 L336.792001,81.012 C336.792001,79.932 336.864001,79.86 337.980001,79.86 L340.716001,79.86 C343.308001,79.86 344.280001,80.112 344.784001,80.868 C345.252001,81.66 345.612001,82.452 345.936001,83.964 L346.980001,83.784 C346.872001,81.948 346.692001,79.5 346.692001,78.6 L330.636001,78.6 L330.636001,79.608 C333.444001,79.86 333.732001,79.968 333.732001,83.208 L333.732001,97.536 C333.732001,100.452 333.444001,100.74 330.168001,100.992 L330.168001,102 L347.520001,102 C347.844001,100.884 348.564001,97.5 348.780001,96.312 L347.700001,96.168 Z" id="Little-Weaver" fill="#000000" sketch:type="MSShapeGroup"></path>
    </g>
</svg>