<?xml version="1.0" standalone="no"?>
<!DOCTYPE svg PUBLIC "-//W3C//DTD SVG 20010904//EN"
 "http://www.w3.org/TR/2001/REC-SVG-20010904/DTD/svg10.dtd">
<svg version="1.0" xmlns="http://www.w3.org/2000/svg"
 width="439.000000pt" height="439.000000pt" viewBox="0 0 439.000000 439.000000"
 preserveAspectRatio="xMidYMid meet">
<metadata>
Created by potrace 1.11, written by Peter Selinger 2001-2013
</metadata>
<g transform="translate(0.000000,439.000000) scale(0.100000,-0.100000)"
fill="#000000" stroke="none">
<path d="M0 2360 c0 -1117 2 -2030 4 -2030 3 0 17 27 32 60 29 65 69 106 112
116 15 4 70 48 122 98 104 101 143 128 208 145 35 10 42 16 42 37 0 54 71 146
135 176 20 9 23 19 27 78 4 72 24 110 58 110 11 0 21 14 28 39 13 40 62 96 94
107 12 3 18 15 18 33 0 39 32 77 96 113 30 16 54 36 54 44 0 7 25 32 55 54
l56 41 -7 49 c-5 36 -3 55 7 67 26 30 92 73 114 73 18 0 24 7 29 39 12 80 117
176 204 188 l40 5 -39 39 c-21 21 -45 52 -54 69 -15 30 -15 33 2 52 24 28 74
48 118 48 36 0 43 8 23 28 -14 14 5 40 40 53 l24 9 -26 31 c-14 17 -26 34 -26
38 0 4 23 20 50 35 38 21 48 31 41 40 -14 16 14 56 38 56 10 0 35 -7 55 -15
54 -23 47 -2 -29 84 -72 82 -80 110 -45 165 57 94 230 110 395 37 54 -24 78
-13 39 18 -15 12 -24 25 -20 29 4 4 34 7 67 7 32 -1 59 1 59 3 0 2 -12 23 -26
48 -21 36 -24 47 -14 59 7 8 18 15 24 16 6 0 25 30 43 67 l32 67 6 240 c5 168
14 293 31 417 19 143 23 211 21 361 -2 179 4 221 24 184 14 -23 38 -21 48 4 7
21 8 20 19 -7 16 -40 29 -104 41 -203 6 -48 21 -107 36 -138 l24 -54 62 65
c98 106 200 142 324 116 85 -18 263 -97 282 -126 19 -29 58 -181 84 -328 10
-59 19 -112 19 -116 0 -20 73 17 97 48 51 67 65 138 72 362 3 113 10 211 14
218 5 7 31 12 68 12 80 0 88 -16 70 -138 -19 -134 -25 -455 -12 -652 9 -136 9
-185 0 -220 -14 -53 -15 -84 -5 -201 5 -56 3 -107 -5 -145 -6 -33 -11 -70 -11
-83 0 -14 -15 -48 -32 -76 -18 -28 -38 -61 -45 -74 -12 -21 -11 -22 8 -12 37
20 41 11 16 -38 l-25 -50 43 -3 c33 -2 42 -7 41 -21 -1 -12 3 -16 15 -13 85
25 211 16 241 -17 38 -41 22 -66 -92 -141 -34 -23 -63 -45 -65 -51 -2 -6 18
-9 51 -7 66 4 214 -22 279 -50 51 -22 89 -61 81 -82 -3 -8 -42 -30 -87 -51
l-82 -36 28 -17 c32 -20 33 -26 7 -45 -19 -14 -17 -16 41 -37 74 -28 170 -90
193 -125 24 -36 21 -75 -5 -75 -11 0 -40 -5 -64 -11 l-45 -11 24 -19 c29 -23
45 -65 37 -98 -5 -18 -21 -30 -66 -46 -32 -13 -60 -26 -62 -31 -1 -5 24 -28
57 -51 62 -44 93 -89 88 -126 -4 -26 -62 -41 -122 -32 l-40 6 52 -38 c74 -55
97 -106 126 -274 5 -31 11 -38 37 -43 51 -10 72 -100 51 -220 -6 -33 -4 -44
15 -62 27 -27 53 -110 58 -188 3 -33 9 -64 15 -70 7 -7 10 622 10 2007 l0
2017 -2195 0 -2195 0 0 -2030z"/>
<path d="M3175 3685 c-30 -29 -32 -65 -7 -88 25 -23 37 -21 61 9 33 42 23 104
-16 104 -8 0 -25 -11 -38 -25z"/>
<path d="M2735 2301 c-71 -6 -90 -12 -174 -58 -90 -49 -96 -55 -185 -170 -51
-65 -129 -180 -174 -255 l-82 -136 -261 -193 c-149 -110 -279 -214 -303 -242
-100 -119 -144 -160 -230 -219 -50 -34 -147 -103 -216 -153 -467 -340 -859
-588 -1052 -666 l-58 -23 0 -93 0 -93 2075 0 c2001 0 2075 1 2066 18 -5 10
-120 194 -254 409 l-245 391 -97 247 c-84 212 -111 270 -197 411 -109 180
-115 195 -158 404 -60 287 -104 404 -157 414 -51 9 -217 13 -298 7z"/>
</g>
</svg>
