<svg id="Layer_1" data-name="Layer 1" xmlns="http://www.w3.org/2000/svg" viewBox="0 0 128 128">
  <defs>
    <style>
      .cls-1 {
        fill: #a4c16e;
      }

      .cls-2 {
        fill: #3e535e;
      }

      .cls-2, .cls-3 {
        fill-rule: evenodd;
      }

      .cls-3 {
        fill: #414042;
      }
    </style>
  </defs>
  <title>custom</title>
  <g>
    <circle class="cls-1" cx="64" cy="64" r="64"/>
    <path class="cls-2" d="M144.51,289.05a27.08,27.08,0,0,0-3.44.26,5.94,5.94,0,0,1-5.22-1.75L97.12,248.82a6,6,0,0,1-1.75-5.19,22.33,22.33,0,0,0,.26-3.47,24.46,24.46,0,1,0-24.47,24.44,23.43,23.43,0,0,0,3.5-.26,6,6,0,0,1,5.16,1.75l38.79,38.77a6,6,0,0,1,1.72,5.19,23,23,0,0,0-.25,3.47,24.46,24.46,0,1,0,24.44-24.47h0Zm-74.9-60.66L74,229.56l4.42,1.2a2.94,2.94,0,0,1,2.12,2.15l1.2,4.41,1.18,4.39a3,3,0,0,1-.77,3l-3.24,3.21-3.23,3.24a3,3,0,0,1-3,.77l-4.39-1.15-4.41-1.2a3,3,0,0,1-2.18-2.18L60.59,243l-1.17-4.42a3,3,0,0,1,.8-2.95l3.21-3.21,3.21-3.27a3.08,3.08,0,0,1,3-.77h0ZM143,301.74l4.42,1.18,4.41,1.2a2.92,2.92,0,0,1,2.12,2.15l1.2,4.41,1.17,4.39a3,3,0,0,1-.77,3l-3.24,3.21L149,324.5a3,3,0,0,1-3,.77l-4.38-1.15-4.42-1.2a3,3,0,0,1-2.18-2.18l-1.17-4.39-1.18-4.41a3,3,0,0,1,.8-3l3.21-3.21,3.21-3.24A3,3,0,0,1,143,301.74Z" transform="translate(-43.84 -212.85)"/>
    <path class="cls-3" d="M144.51,215.7a24.45,24.45,0,0,0-24.44,24.47,23.1,23.1,0,0,0,.25,3.47,6,6,0,0,1-1.72,5.19L99.18,268.19,79.82,287.56a5.83,5.83,0,0,1-5.16,1.75,27.62,27.62,0,0,0-3.5-.26,24.45,24.45,0,0,0-24.44,24.47A22.59,22.59,0,0,0,47,317a1.51,1.51,0,0,0,2.58.89L59.7,307.71a3,3,0,0,1,3.06-.78l9.92,3a3.06,3.06,0,0,1,2,2.06l3,9.91a3,3,0,0,1-.74,3L66.86,335.13a1.54,1.54,0,0,0-.4,1.58,1.48,1.48,0,0,0,1.26,1,23.06,23.06,0,0,0,3.44.26,24.45,24.45,0,0,0,24.47-24.44,22.27,22.27,0,0,0-.26-3.47,5.93,5.93,0,0,1,1.75-5.19l19.37-19.37,19.37-19.4a6.11,6.11,0,0,1,5.22-1.75,22.93,22.93,0,0,0,3.44.26A24.46,24.46,0,0,0,169,240.17a23,23,0,0,0-.26-3.46,1.47,1.47,0,0,0-1-1.23,1.6,1.6,0,0,0-1.61.37L156,246a3,3,0,0,1-3.07.77L143,243.69a3,3,0,0,1-2-2l-3-9.91a2.92,2.92,0,0,1,.77-3l10.14-10.14a1.52,1.52,0,0,0,.34-1.57,1.49,1.49,0,0,0-1.23-1A26.8,26.8,0,0,0,144.51,215.7Z" transform="translate(-43.84 -212.85)"/>
  </g>
</svg>
